<?xml version="1.0" encoding="UTF-8"?>
<svg version="1.1" xmlns="http://www.w3.org/2000/svg" width="128" height="128">
<path d="M0 0 C42.24 0 84.48 0 128 0 C128 42.24 128 84.48 128 128 C85.76 128 43.52 128 0 128 C0 85.76 0 43.52 0 0 Z " fill="#000000" transform="translate(0,0)"/>
<path d="M0 0 C0.98484375 0.02707031 1.9696875 0.05414063 2.984375 0.08203125 C3.73203125 0.11683594 4.4796875 0.15164062 5.25 0.1875 C5.25 1.8375 5.25 3.4875 5.25 5.1875 C3.97125 5.14625 2.6925 5.105 1.375 5.0625 C-0.76871492 4.94537127 -0.76871492 4.94537127 -2.75 5.1875 C-5.14763185 7.58513185 -5.09280586 8.52023498 -5.375 11.8125 C-5.49875 13.25625 -5.6225 14.7 -5.75 16.1875 C-2.78 16.1875 0.19 16.1875 3.25 16.1875 C3.25 17.5075 3.25 18.8275 3.25 20.1875 C0.28 20.1875 -2.69 20.1875 -5.75 20.1875 C-5.42 29.0975 -5.09 38.0075 -4.75 47.1875 C-3.1 47.5175 -1.45 47.8475 0.25 48.1875 C0.25 49.1775 0.25 50.1675 0.25 51.1875 C-5.36 51.1875 -10.97 51.1875 -16.75 51.1875 C-16.75 50.1975 -16.75 49.2075 -16.75 48.1875 C-15.265 47.6925 -15.265 47.6925 -13.75 47.1875 C-13.42 38.2775 -13.09 29.3675 -12.75 20.1875 C-14.4 20.1875 -16.05 20.1875 -17.75 20.1875 C-17.75 18.8675 -17.75 17.5475 -17.75 16.1875 C-16.1 16.1875 -14.45 16.1875 -12.75 16.1875 C-12.8428125 14.640625 -12.8428125 14.640625 -12.9375 13.0625 C-12.7021108 8.19778979 -11.57504045 4.91884417 -8 1.52734375 C-5.14771372 -0.17115312 -3.29330928 -0.11761819 0 0 Z " fill="#F2F2F2" transform="translate(57.75,36.8125)"/>
<path d="M0 0 C1.32 0 2.64 0 4 0 C4 3.63 4 7.26 4 11 C7.3 11 10.6 11 14 11 C14 12.32 14 13.64 14 15 C10.7 15 7.4 15 4 15 C4.13813025 19.14612814 4.28678859 23.29181162 4.4375 27.4375 C4.47681641 28.62150391 4.51613281 29.80550781 4.55664062 31.02539062 C4.61948242 32.71245117 4.61948242 32.71245117 4.68359375 34.43359375 C4.72025146 35.47572021 4.75690918 36.51784668 4.79467773 37.59155273 C4.73515341 39.9499826 4.73515341 39.9499826 6 41 C9.49734228 40.61140641 12.65788261 40.11403913 16 39 C15.875 40.8125 15.875 40.8125 15 43 C10.85447923 45.90186454 7.04932212 46.40767082 2.1484375 46.69140625 C-0.53541832 45.82769265 -1.80265631 44.52786241 -3.24560547 42.1237793 C-4.94402592 37.34236845 -4.39678708 32.12705218 -4.25 27.125 C-4.23195313 25.9596875 -4.21390625 24.794375 -4.1953125 23.59375 C-4.1483382 20.72831751 -4.08266293 17.86458832 -4 15 C-5.32 15 -6.64 15 -8 15 C-7.75 13.1875 -7.75 13.1875 -7 11 C-6.071875 10.38125 -6.071875 10.38125 -5.125 9.75 C-1.96907314 7.15100141 -1.19800049 3.8208955 0 0 Z " fill="#E7E7E7" transform="translate(72,42)"/>
</svg>
